<?xml version="1.0" encoding="utf-8"?>
<!-- Generator: Adobe Illustrator 19.2.1, SVG Export Plug-In . SVG Version: 6.00 Build 0)  -->
<!DOCTYPE svg PUBLIC "-//W3C//DTD SVG 1.1//EN" "http://www.w3.org/Graphics/SVG/1.1/DTD/svg11.dtd">
<svg version="1.1" id="Layer_1" xmlns="http://www.w3.org/2000/svg" xmlns:xlink="http://www.w3.org/1999/xlink" x="0px" y="0px"
	 viewBox="0 0 1080 765" style="enable-background:new 0 0 1080 765;" xml:space="preserve">
<style type="text/css">
	.st0{fill:#FFFFFF;}
</style>
<g>
	<g>
		<g>
			<path class="st0" d="M83.4,436c26.4-0.5,40.9-13.3,40.9-36.4c0-24.3-16.2-41-45.2-41H3.7v12.7h18.1v138H3.7v12.7h80
				c30.7,0,48.6-18.4,48.6-44.5C132.2,451.7,114.6,436.9,83.4,436z M51.5,371.3H68c15,0,24.8,14.3,24.8,30.9
				c0,15.9-10.5,29.2-24.3,29.2H51.5V371.3z M68,509.3H51.5v-65.4h17.4c19,0,31.7,12.6,31.7,31.9C100.6,495.7,89.6,509.3,68,509.3z"
				/>
			<path class="st0" d="M558.8,358.6h-74.3v12.7h18.1v138h-18.1v12.7h74c23.3,0,40.2-9.6,55.2-23.8c16.2-15.7,25-36.2,25-58.1
				C638.8,396,603.8,358.6,558.8,358.6z M552.6,509.3h-19.3v-138h20.2c27.9,0,51.7,33.8,51.7,68.8
				C605.2,477.4,582.6,509.3,552.6,509.3z"/>
			<polygon class="st0" points="756.7,509.3 706,509.3 706,371.3 723.9,371.3 723.9,358.6 657.2,358.6 657.2,371.3 675.3,371.3 
				675.3,509.3 657.2,509.3 657.2,521.9 769.6,521.9 769.6,487.2 756.7,487.2 			"/>
			<polygon class="st0" points="895,509.3 843.3,509.3 843.3,446 881.4,446 881.4,462.6 894.3,462.4 894.3,415.5 881.4,415.8 
				881.4,431.9 843.3,431.9 843.3,371.3 892.8,371.3 892.8,392.9 905.5,392.9 905.5,358.6 794.5,358.6 794.5,371.3 812.6,371.3 
				812.6,509.3 794.5,509.3 794.5,521.9 907.8,521.9 907.8,487.2 895,487.2 			"/>
			<polygon class="st0" points="1022.9,358.6 1022.9,371.3 1043.4,371.3 1011.5,423.8 977.3,371.3 995.3,371.3 995.3,358.6 
				928.6,358.6 928.6,371.3 943.3,371.3 990.7,443.1 990.7,508.8 972.9,508.8 972.9,521.9 1039.5,521.9 1039.5,508.8 1021.5,508.8 
				1021.5,436.9 1061.5,371.3 1078.3,371.3 1078.3,358.6 			"/>
			<path class="st0" d="M396.3,358.6h-18.4l-59.7,150.7h-21.3c-4.8-0.5-7.6-2.9-13.1-11.2L250,446.2c22.4-6.9,31.8-20.7,31.8-42.2
				c0,0,2.6-45.5-52.1-45.5h-67.7v12.7H180v138h-18.1v12.7h65.4v-12.7h-17.8v-60.4h9.9l38.3,59.1c8.1,12.6,10.5,14,24.5,14H353
				v-12.7h-19.3l15.9-40h57.1l15.5,40h-16.8v12.7h64.3v-12.7h-16.1L396.3,358.6z M223.5,436.9h-14v-65.7h15
				c16.9,0,26.6,13.8,26.6,32.8C251.1,422.9,239.9,436.9,223.5,436.9z M355.1,455.7l24-59.5l22.6,59.5H355.1z"/>
		</g>
		<g>
			<path class="st0" d="M236.2,573.5v77.1c0,21.7-7.7,35.6-24.4,44.7c-8.5,4.4-18.2,6.8-28.1,6.8c-29.3,0-51-19.4-51-45.9v-82.7
				h-15.2V566h48.1v7.5h-15.2V650c0,24.4,14.3,40.5,36.8,40.5c23.1,0,38.6-16.4,38.6-40.7v-76.3h-15.2V566h40.6v7.5H236.2z"/>
			<path class="st0" d="M316.6,699.5V692h15.2v-59.3c0-10.7-5.5-17.4-14.4-17.4c-8.7,0-13.8,3.8-31.4,24.1V692h15.4v7.5h-45.9V692
				h15.4v-72.8h-17.6v-5.5l29.1-7.9h3.6v22.7c15.2-17.6,23.9-23,36.8-23c15,0,24.3,9.7,24.3,25.3V692h15.2v7.5H316.6z"/>
			<path class="st0" d="M374.3,699.5V692h15.4v-72.8h-17.6v-5.5l29.1-7.9h3.7V692h15.4v7.5H374.3z M396.3,581.8
				c-5.9,0-10.5-4.6-10.5-10.7c0-5.9,4.7-10.5,10.5-10.5c6.1,0,10.7,4.6,10.7,10.5C407.1,577.1,402.4,581.8,396.3,581.8z"/>
			<path class="st0" d="M502.4,615.4l-33,86.8h-4.1l-35.4-86.5l-8.5-0.2v-7.5h39.2v7.5h-14.1l24.1,59.7l22.6-59.7h-13.5v-7.5h31.1
				v7.5H502.4z"/>
			<path class="st0" d="M529.8,647.7v2.2c0,25.3,13.3,42.9,32.6,42.9c8.1,0,13.6-2,24.9-9.3l3.8,7.5c-15.2,8.7-22.2,11.1-34,11.1
				c-25.7,0-43.9-19.8-43.9-47.7c0-28.3,18.4-48.9,43.5-48.9c21.8,0,36.8,15,36.8,36.8v5.5H529.8z M576.9,634.8
				c0-12.2-8.3-20.8-20-20.8c-14.8,0-25.1,9.9-26.9,25.7h46.9V634.8z"/>
			<path class="st0" d="M665,626.9c-4-3.8-6.9-5.7-8.9-5.7c-3.6,0-7.3,3.5-18.4,17V692h19.4v7.5h-50V692h15.4v-72.8H605v-5.5
				l29.1-7.9h3.6v22.7c14.6-18.6,19.8-23,27.1-23c2.4,0,4.4,0.6,5.7,1.8l6.3,5.5L665,626.9z"/>
			<path class="st0" d="M720.5,702.1c-11.3,0-19.8-2.6-25.7-8.1v7.3h-8.1v-28.8h9.3v5.5c0,8.7,11.3,16.4,23.9,16.4
				c11.1,0,19.4-5.9,19.4-14c0-8.1-5.7-12.5-26.9-20.8c-19.4-7.5-26.3-15-26.3-27.7c0-15.8,12.7-26.5,31.4-26.5
				c8.9,0,15.8,2.2,21.5,6.9l1.2-7.3h8.7l-4.9,29.1h-8.7c0.8-2.2,1.2-4.9,1.2-6.7c0-7.9-9.1-14.4-20-14.4
				c-10.5,0-17.4,5.7-17.4,14.4c0,8.7,1.4,9.7,25.9,19.6c19.8,7.9,26.1,14.6,26.1,27.5C751.1,690.8,738.6,702.1,720.5,702.1z"/>
			<path class="st0" d="M766.8,699.5V692h15.4v-72.8h-17.6v-5.5l29.1-7.9h3.6V692h15.4v7.5H766.8z M788.8,581.8
				c-5.9,0-10.5-4.6-10.5-10.7c0-5.9,4.6-10.5,10.5-10.5c6.1,0,10.7,4.6,10.7,10.5C799.6,577.1,794.9,581.8,788.8,581.8z"/>
			<path class="st0" d="M934.8,607.9v7.5h13.5L925.7,675l-24.5-59.7h14.4v-7.5h-66.7v-26.5h-14.6v26.5h-17.6v7.5h17.6v66.3
				c0,12.4,7.1,19.6,18.8,19.6c7.5,0,11.5-1.9,22.2-10.3l-3.4-5.5c-6.9,4-9.5,4.9-13.7,4.9c-6.7,0-9.3-2.8-9.3-10.6v-64.5h36
				l32.8,80.3c-4.8,12.3-7.5,17.2-13.1,24.7c-6.3,8.1-10.1,11.1-21.2,17.4l13.1,13.5c3.6-4.8,6.3-8.5,8.1-10.9
				c6.7-9.7,14.1-24.1,18.8-36.2l34.2-88.8h8.5v-7.5H934.8z"/>
		</g>
	</g>
</g>
<path class="st0" d="M539.5,21.1c-43.9,0-83.9,15-114,39.6v133.8c0,33.5,20.1,63,51.2,75.2l63.3,25.5l63.1-25.4
	c31.2-12.2,51.3-41.8,51.3-75.3V61.5C624.3,36.4,583.9,21.1,539.5,21.1z M647,194.4c0,30.4-18.3,57.2-46.6,68.3L540,287.1
	l-60.5-24.4c-28.3-11.1-46.5-37.9-46.5-68.3V64.5c28.5-22.4,65.8-35.9,106.6-35.9c41.2,0,78.9,13.9,107.5,36.6V194.4z M539.6,40.4
	c-34.1,0-66.8,10.4-94.7,30v124c0,25.5,15.3,48,39.1,57.3l56.1,22.6l56-22.6c23.8-9.3,39.1-31.8,39.1-57.3V71.1
	C607,51,574,40.4,539.6,40.4z M598.4,143.6l-10.2,10.2l10.2,10.2v49l-21.2,21.2h-96.5v-21.6l9.7-8.3v-101l-9.7-8.3V73.4h96.5
	l21.2,21.2V143.6z M529,107.6h30.4v29.1H529V107.6z M529,171h30.4v29H529V171z M583.9,97.9l-12-11.9h-77.2l10.1,9v117.6l-10.1,9.1
	h77.1l12.1-12V163l-9.2-9.2l9.2-9.2V97.9z M514.6,95H574v54.3h-59.3V95z M574,212.6h-59.3v-54.2H574V212.6z"/>
</svg>
