<?xml version="1.0" encoding="utf-8"?>
<!-- Generator: Adobe Illustrator 28.0.0, SVG Export Plug-In . SVG Version: 6.00 Build 0)  -->
<svg version="1.1" id="Layer_1" xmlns="http://www.w3.org/2000/svg" xmlns:xlink="http://www.w3.org/1999/xlink" x="0px" y="0px"
	 viewBox="0 0 430 76" style="enable-background:new 0 0 430 76;" xml:space="preserve">
<style type="text/css">
	.st0{display:none;}
	.st1{fill:#FFFFFF;}
</style>
<g id="Layer_1_1_" class="st0">
</g>
<g id="Layer_1_2_">
	<g>
		<path class="st1" d="M39.2,48.7c1.1-16.8-21.1-21.8-22.9-22.4c-1.8-0.6-1.3-1.6-0.4-2.2s14.8-4.2,13-11.9
			c-1.1-4.4-14.2-8-20.7-9.5c-3.2,1.4-5.6,4.6-5.6,8.4v47.2c0,5.1,4.1,9.2,9.2,9.2H20C20.4,67.4,38.5,59.5,39.2,48.7"/>
		<path class="st1" d="M59,2H13.3c1,0.2,29.8,3.7,29.9,11.3c0.2,7.7-18.1,9.9-21.8,10.7c-2.9,0.6-2.2,2,0.5,2.2
			c2.4,0.2,12.8,0.5,21.5,2.5C55.9,31.5,64,40.5,63.7,50.4c-0.2,9.9-7.7,17-7.8,17.2h3.2c5.1,0,9.2-4.1,9.2-9.2V11.2
			C68.2,6.1,64.1,2,59,2"/>
	</g>
	<g>
		<g>
			<path class="st1" d="M166.4,38.2c0-7.6-3.2-14.7-14.4-14.7c-5.5,0-10,1.5-12.6,3.1l1.7,5.7c2.4-1.5,5.9-2.5,9.4-2.5
				c6.2,0,7.1,3.8,7.1,6.1v0.5c-12.9-0.1-20.7,4.4-20.7,13.2c0,5.3,3.9,10.4,11,10.4c4.5,0,8.2-1.9,10.4-4.6h0.2l0.5,3.9h8
				c-0.4-2.2-0.5-5.3-0.5-8.4L166.4,38.2L166.4,38.2L166.4,38.2z M157.9,47c0,0.5-0.1,1.3-0.3,1.9c-0.8,2.5-3.4,4.8-6.9,4.8
				c-2.8,0-5-1.5-5-5c0-5.3,5.9-6.6,12.2-6.5L157.9,47L157.9,47z"/>
			<path class="st1" d="M137.3,23.8c-0.7-0.2-1.2-0.2-2.1-0.2c-3.7,0-7.8,2.5-9.5,7.5h-0.3l-0.3-6.6h-7.7c0.2,3.2,0.3,6.5,0.3,11.3
				v23.6h8.8V41.2c0-1,0.2-1.9,0.3-2.7c0.8-3.9,3.6-6.6,7.9-6.6c1.1,0,1.9,0.2,2.6,0.3V23.8L137.3,23.8z"/>
			<rect x="354.7" y="24.3" class="st1" width="8.9" height="34.9"/>
			<path class="st1" d="M103.9,33.3v-0.2c5.3-1.9,8-6,8-10.4c0-4.1-2-7.3-5-9c-3.3-2.3-7.3-3.1-13.8-3.1c-4.9,0-10,0.5-12.8,1v47.5
				c2.2,0.3,5.9,0.6,10.8,0.6c8.8,0,14.4-1.5,17.9-4.5c2.8-2.3,4.6-5.6,4.6-10C113.7,38.6,109,34.6,103.9,33.3z M89,17.4
				c0.9-0.2,2.5-0.4,5-0.4c5.6,0,9,2.1,9,6.6c0,4.1-3.5,7-9.5,7h-4.5L89,17.4L89,17.4L89,17.4z M93.6,53.1c-2,0-3.5-0.1-4.6-0.2
				V37.1h4.4c6.1,0,11,2.3,11,7.9C104.4,51,99.4,53.1,93.6,53.1z"/>
			<path class="st1" d="M410.1,24.3l-5.5,18.6c-0.6,2.3-1.3,4.9-1.9,6.9h-0.2c-0.5-2-1.2-4.6-1.9-6.8l-6.3-18.7h-9.7h-5.3v-10
				l-8.6,2.1v7.9h-5v6.6h5v16.4c0,4.6,0.9,7.7,2.7,9.7c1.6,1.8,4.4,2.9,7.6,2.9c2.8,0,5.1-0.4,6.4-0.9l-0.2-6.7
				c-0.8,0.2-1.9,0.5-3.5,0.5c-3.4,0-4.5-2.2-4.5-6.5V30.9h8l10.1,25.4c0.5,0.9,0.5,1.4,0.5,1.7c0,0.5-0.2,0.9-0.5,1.5
				c-1.2,2.4-3.2,4.5-4.8,5.5c-1.8,1.3-3.6,2.1-5.2,2.5l2,7.5c2.2-0.3,5.8-1.5,9.3-4.5c4.2-3.6,7.4-9.4,12.2-22.4l8.7-23.8
				L410.1,24.3L410.1,24.3z"/>
			<path class="st1" d="M359.1,10.9c-2.9,0-4.9,2.1-4.9,4.8c0,2.6,1.9,4.7,4.9,4.7c3.1,0,5-2.1,5-4.7C364,13,362.2,10.9,359.1,10.9z
				"/>
			<path class="st1" d="M202.8,24.3H194v21.1c0,1-0.2,1.9-0.5,2.7c-0.9,2.2-3.2,4.7-6.7,4.7c-4.6,0-6.5-3.7-6.5-9.5v-19h-8.9v20.5
				c0,11.4,5.8,15.2,12.2,15.2c6.3,0,9.7-3.6,11.2-6.1h0.2l0.5,5.3h7.7c-0.2-2.9-0.3-6.3-0.3-10.4L202.8,24.3L202.8,24.3L202.8,24.3
				z"/>
			<path class="st1" d="M330.2,10.9c-2.9,0-4.9,2.1-4.9,4.8c0,2.6,1.9,4.7,4.9,4.7c3.1,0,5-2.1,5-4.7C335,13,333.2,10.9,330.2,10.9z
				"/>
			<path class="st1" d="M257.9,10.9l-15.5,48.3h9.1l4.2-13.7h15.4l4.4,13.7h9.4l-15.7-48.3C269.3,10.9,257.9,10.9,257.9,10.9z
				 M257.1,38.9l3.7-11.9c0.9-2.9,1.5-6.3,2.3-9h0.2c0.7,2.8,1.5,6.1,2.5,9l3.8,11.9H257.1z"/>
			<path class="st1" d="M307.5,23.5c-5.3,0-9,2.2-11.2,5.6h-0.2V10.9h-8.8v38.5c0,3.6-0.2,7.4-0.3,9.8h7.5l0.5-5.3h0.2
				c2.5,4.3,6.5,6,11,6c7.9,0,15.8-6.3,15.8-18.8C322.1,30.6,316,23.5,307.5,23.5z M304.2,53.1c-3.8,0-6.9-2.6-7.8-6.2
				c-0.2-0.6-0.2-1.4-0.2-2.1v-5.6c0-0.9,0.2-1.6,0.3-2.3c1-3.9,4.2-6.5,7.8-6.5c5.9,0,8.8,5,8.8,11.2
				C313.1,48.7,309.8,53.1,304.2,53.1z"/>
			<path class="st1" d="M227.8,23.5c-5.8,0-9.6,3.3-11.1,6h-0.2l-0.5-5.3h-7.7c0.2,3,0.3,6.4,0.3,10.4v24.5h8.9V38.8
				c0-1,0.1-2.1,0.4-2.9c0.9-2.6,3.4-5.2,6.9-5.2c4.8,0,6.6,3.8,6.6,8.8v19.7h8.8V38.5C240.1,27.5,233.9,23.5,227.8,23.5z"/>
			<rect x="325.8" y="24.3" class="st1" width="8.9" height="34.9"/>
			<rect x="340.2" y="10.9" class="st1" width="8.9" height="48.3"/>
		</g>
		<path class="st1" d="M424,27.2V26h0.9c0.5,0,0.9,0.2,0.9,0.6c0,0.6-0.5,0.6-1.2,0.6H424z M424,27.6h0.8l1.1,1.6h0.5l-1.2-1.6
			c0.5-0.1,0.9-0.4,0.9-1c0-0.6-0.4-1-1.2-1h-1.5v3.6h0.5L424,27.6C423.9,27.6,424,27.6,424,27.6z M424.8,24.7
			c1.5,0,2.8,1.2,2.8,2.7c0,1.5-1.2,2.7-2.8,2.7c-1.5,0-2.8-1.2-2.8-2.7C422,25.9,423.1,24.7,424.8,24.7 M424.8,24.3
			c-1.9,0-3.2,1.4-3.2,3.2s1.4,3.2,3.2,3.2c1.9,0,3.2-1.4,3.2-3.2C428,25.6,426.6,24.3,424.8,24.3"/>
	</g>
</g>
</svg>
