<?xml version="1.0" encoding="utf-8"?>
<!-- Generator: Adobe Illustrator 26.0.1, SVG Export Plug-In . SVG Version: 6.00 Build 0)  -->
<svg version="1.1" id="Layer_1" xmlns="http://www.w3.org/2000/svg" xmlns:xlink="http://www.w3.org/1999/xlink" x="0px" y="0px"
	 viewBox="0 0 408.3 88.5" style="enable-background:new 0 0 408.3 88.5;" xml:space="preserve">
<style type="text/css">
	.st0{fill:#FFFFFF;}
</style>
<g>
	<path class="st0" d="M19.5,78.4c-12.3-8.6-4.7-28.2,17.1-43.7c11-7.8,23.4-13.1,34.6-15.3c-13,0.9-28.9,6.7-42.4,16.4
		C7,51.2-0.7,70.8,11.7,79.4c6.1,4.3,16,5.1,27.1,2.9C30.9,82.9,24.1,81.6,19.5,78.4"/>
	<path class="st0" d="M32.7,73.9C23.2,67.2,29.1,52,45.9,40c8.5-6,18.1-10.1,26.8-11.9c-10.1,0.7-22.4,5.2-32.9,12.7
		C23.1,52.9,17.1,68,26.7,74.7c4.7,3.3,12.4,3.9,21,2.2C41.6,77.4,36.3,76.4,32.7,73.9"/>
	<polyline class="st0" points="45.6,69.1 36.2,69.1 32.5,20.8 49.1,20.8 45.6,69.1 	"/>
	<path class="st0" d="M47.9,10c0,4.1-3,7.4-6.8,7.4c-3.7,0-6.8-3.3-6.8-7.4s3-7.4,6.8-7.4C44.8,2.5,47.9,5.9,47.9,10"/>
</g>
<g>
	<path class="st0" d="M387.6,66.5c0.2,0.1,0.4,0.2,0.6,0.2c0.4,0,0.6-0.2,0.6-0.5s-0.1-0.4-0.5-0.5c-0.5-0.2-0.7-0.4-0.7-0.8
		s0.4-0.7,0.9-0.7c0.3,0,0.5,0.1,0.6,0.1l-0.1,0.3c-0.1,0-0.3-0.1-0.5-0.1c-0.4,0-0.5,0.2-0.5,0.4c0,0.3,0.2,0.4,0.5,0.5
		c0.5,0.2,0.7,0.4,0.7,0.8s-0.3,0.8-1,0.8c-0.3,0-0.6-0.1-0.7-0.2L387.6,66.5z"/>
	<path class="st0" d="M392,65.8c0-0.4,0-0.8,0-1.2l0,0c-0.1,0.3-0.2,0.7-0.3,1l-0.5,1.3h-0.3l-0.4-1.3c-0.1-0.4-0.2-0.7-0.3-1.1l0,0
		c0,0.3,0,0.8-0.1,1.2l-0.1,1.2h-0.3l0.2-2.7h0.5l0.5,1.3c0.1,0.3,0.2,0.6,0.3,0.9l0,0c0.1-0.3,0.2-0.6,0.3-0.9l0.5-1.3h0.5l0.2,2.7
		h-0.6L392,65.8z"/>
</g>
<g>
	<path class="st0" d="M71.7,62.8h-9.3l-0.3-1.2h0.8c0.3,0,0.7,0,1-0.1c0.3-0.1,0.6-0.2,0.8-0.4c0.2-0.1,0.3-0.3,0.4-0.6
		c0.1-0.3,0.2-0.5,0.2-0.8s0.1-0.5,0.1-0.8c0-0.2,0-0.4,0-0.5V43.7c0-0.6,0-1,0-1.2c0-0.2-0.1-0.4-0.2-0.7c0-0.1-0.1-0.2-0.2-0.4
		c-0.1-0.2-0.4-0.4-0.8-0.6c-0.5-0.2-0.8-0.2-0.9-0.2h-1.1l0.4-1.2h9.1l0.3,1.2h-0.9c-0.6,0-1.2,0.2-1.7,0.7
		c-0.3,0.2-0.4,0.8-0.5,1.7s-0.1,2-0.1,3.2V55c0,0.1,0,0.1,0,0.2c0,0.6,0,1,0,1.1c0,0.5,0,1,0,1.5s0,1,0.1,1.5s0.1,0.9,0.2,1.2
		c0.1,0.3,0.2,0.6,0.4,0.7c0.3,0.2,0.6,0.3,0.9,0.4c0.3,0.1,0.6,0.1,0.8,0.1h0.9L71.7,62.8z"/>
	<path class="st0" d="M82.2,62.8h-9l-0.4-1.2h0.1c0.1,0,0.2,0,0.3,0c0.3,0,0.6,0,1-0.1c0.3,0,0.6-0.1,0.8-0.3
		c0.4-0.2,0.7-0.7,0.8-1.4c0.1-0.7,0.2-1.7,0.2-3V43.7c0-0.8-0.1-1.4-0.2-1.9c-0.1-0.5-0.4-0.9-0.8-1.1c-0.4-0.2-0.8-0.3-1.2-0.3
		c-0.3,0-0.5,0-0.8,0.1l0.3-1.2c0.6-0.1,1.4-0.2,2.4-0.4c0.1,0,0.3,0,0.7-0.1s0.8-0.2,1.2-0.2c0.3-0.1,0.9-0.2,1.5-0.4l0.2-0.1
		c0,0.2,0,0.7,0,1.4s0,1.2,0,1.4c0,0.4,0,1-0.1,1.8c0,0.8-0.1,1.4-0.1,1.8v11c0,1.8,0.1,3.1,0.2,4c0.1,0.9,0.4,1.5,0.8,1.7
		c0.2,0.1,0.4,0.2,0.7,0.3c0.3,0,0.6,0.1,0.9,0.1c0.3,0,0.5,0,0.7-0.1L82.2,62.8z"/>
	<path class="st0" d="M93.1,62.8h-9l-0.4-1.2h0.1c0.1,0,0.2,0,0.3,0c0.3,0,0.6,0,1-0.1c0.3,0,0.6-0.1,0.8-0.3
		c0.4-0.2,0.7-0.7,0.8-1.4c0.1-0.7,0.2-1.7,0.2-3V43.7c0-0.8-0.1-1.4-0.2-1.9c-0.1-0.5-0.4-0.9-0.8-1.1c-0.4-0.2-0.8-0.3-1.2-0.3
		c-0.3,0-0.5,0-0.8,0.1l0.3-1.2c0.6-0.1,1.4-0.2,2.4-0.4c0.1,0,0.3,0,0.7-0.1s0.8-0.2,1.2-0.2c0.3-0.1,0.9-0.2,1.5-0.4l0.2-0.1
		c0,0.2,0,0.7,0,1.4s0,1.2,0,1.4c0,0.4,0,1-0.1,1.8c0,0.8-0.1,1.4-0.1,1.8v11c0,1.8,0.1,3.1,0.2,4c0.1,0.9,0.4,1.5,0.8,1.7
		c0.2,0.1,0.4,0.2,0.7,0.3c0.3,0,0.6,0.1,0.9,0.1c0.3,0,0.5,0,0.7-0.1L93.1,62.8z"/>
	<path class="st0" d="M103.5,62.8h-8.4l-0.3-1.2c0.3,0.1,0.5,0.1,0.8,0.1c0.4,0,0.8-0.1,1.3-0.3c0.4-0.2,0.7-0.7,0.8-1.4
		c0.1-0.7,0.2-1.8,0.2-3.1v-6.4c0-0.9-0.1-1.5-0.2-2.1c-0.1-0.5-0.4-0.9-0.8-1c-0.4-0.2-0.7-0.2-1-0.2c-0.2,0-0.4,0-0.7,0.1l0.2-1.2
		c0.3,0,0.6-0.1,1-0.1c0.8-0.1,1.4-0.2,1.9-0.2c0.5-0.1,1-0.2,1.8-0.5c0.5-0.1,0.8-0.2,1.1-0.3c0,0.6,0,1-0.1,1.1
		c0,1-0.1,1.9-0.1,2.6c0,0.3,0,0.7,0,1.1c0,0.8-0.1,1.4-0.1,1.9v5.5c0,0.6,0,1,0,1.4s0,0.8,0.1,1.1c0,0.4,0.1,0.7,0.2,1
		c0.1,0.3,0.2,0.4,0.4,0.5h0.1c0.7,0.3,1.3,0.4,1.7,0.4c0.2,0,0.4,0,0.5-0.1L103.5,62.8z M101.2,41.1c-0.2,0.2-0.4,0.5-0.7,0.7
		c-0.4,0.4-0.8,0.8-1,1c-0.2-0.2-0.4-0.4-0.8-0.8l-0.3-0.3c-0.4-0.4-0.8-0.8-1.2-1.1c0.2-0.2,0.4-0.5,0.7-0.8
		c0.2-0.3,0.4-0.5,0.5-0.6l0,0c0.5-0.5,0.8-0.9,1.1-1.1c0.2,0.1,0.4,0.3,0.8,0.6c0.2,0.2,0.3,0.3,0.5,0.4c0.1,0.1,0.3,0.3,0.6,0.6
		s0.5,0.5,0.6,0.6C101.6,40.7,101.4,40.9,101.2,41.1z"/>
	<path class="st0" d="M124.2,62.8H118v-2.9c0-0.8,0-1.7,0.1-2.8c0.1-1.1,0.1-2,0.1-2.8c0-1.1,0-2.1-0.1-2.9c0-0.8-0.2-1.5-0.4-2.1
		s-0.5-1.2-0.9-1.5c-0.4-0.4-1-0.6-1.7-0.6c-0.6,0-1,0.1-1.5,0.3c-0.4,0.2-0.9,0.5-1.5,1c-0.1,0-0.1,0.1-0.1,0.1l-0.6,0.5
		c0,0.6-0.1,1.2-0.1,1.7s0,1,0,1.6c0,0.1,0,0.8,0,2.3c0,0.9,0,1.5,0,1.9c0,1.6,0.1,2.8,0.3,3.6c0.2,0.8,0.6,1.2,1.2,1.3
		c0.3,0,0.5,0.1,0.8,0.1c0.1,0,0.2,0,0.3,0s0.2,0,0.3,0l-0.4,1.2h-8.5l-0.4-1.2c0.3,0,0.5,0.1,0.7,0.1c0.5,0,1-0.1,1.5-0.4
		c0.4-0.2,0.7-0.8,0.8-1.7c0.1-0.9,0.2-2.3,0.2-4.1v-3.3c0-0.1,0-0.4,0-0.7c0-0.5,0-0.8,0-0.8c0-1-0.1-1.8-0.3-2.4s-0.6-0.9-1.2-0.9
		c-0.2,0-0.4,0-0.8,0c-0.3,0-0.5,0-0.6,0l0.2-1.2c0.3,0,0.5,0,0.5,0c0.6-0.1,1-0.1,1.3-0.1s0.6-0.1,1-0.2c0.6-0.1,1.3-0.3,2.2-0.5
		l0.7-0.2L111,48l0.9-0.7c0.8-0.7,1.7-1.3,2.6-1.7c0.9-0.4,1.7-0.6,2.4-0.6c1.5,0,2.7,0.6,3.5,1.6s1.3,2.3,1.3,3.9
		c0,0.9,0,1.7,0,2.2c0,0.6,0,1.3-0.1,2.1c0,0.6-0.1,1.1-0.1,1.5s0,0.8,0,1.2c0,1.4,0.1,2.5,0.3,3.2s0.8,1,1.6,1.1c0.1,0,0.2,0,0.4,0
		c0.3,0,0.5,0,0.8,0L124.2,62.8z"/>
	<path class="st0" d="M141.3,57.2c-0.5,1.2-1.1,2.2-1.9,3.2c-0.8,0.9-1.8,1.7-2.9,2.2c-1.1,0.5-2.2,0.8-3.4,0.8
		c-1.1,0-2.2-0.2-3.2-0.7s-1.9-1.1-2.6-2c-0.8-0.8-1.3-1.8-1.7-2.9s-0.6-2.2-0.6-3.4c0-1.3,0.2-2.5,0.6-3.8c0.4-1.2,1-2.3,1.8-3.2
		c0.8-0.9,1.7-1.7,2.7-2.2c1.1-0.5,2.2-0.8,3.5-0.8c1.2,0,2.3,0.2,3.3,0.7s1.9,1.1,2.7,2c0.8,0.8,1.4,1.8,1.8,2.9
		c0.4,1.1,0.6,2.3,0.6,3.5C142,54.8,141.8,56,141.3,57.2z M137.8,50.8c-0.1-0.9-0.3-1.8-0.7-2.6c-0.3-0.8-0.8-1.4-1.4-1.9
		c-0.6-0.5-1.3-0.7-2.2-0.7s-1.7,0.3-2.3,0.8s-1.1,1.2-1.4,2c-0.3,0.8-0.6,1.7-0.7,2.7c-0.1,1-0.2,2-0.2,3c0,1.1,0.1,2.1,0.2,3
		c0.1,0.9,0.3,1.8,0.6,2.6c0.3,0.8,0.8,1.4,1.4,1.9c0.6,0.5,1.4,0.7,2.4,0.7s1.7-0.2,2.3-0.8c0.6-0.5,1-1.2,1.3-2s0.5-1.7,0.6-2.6
		s0.1-2,0.1-3.1C138,52.7,138,51.7,137.8,50.8z"/>
	<path class="st0" d="M151.9,62.8h-8.4l-0.3-1.2c0.3,0.1,0.5,0.1,0.8,0.1c0.4,0,0.8-0.1,1.3-0.3c0.4-0.2,0.7-0.7,0.8-1.4
		c0.1-0.7,0.2-1.8,0.2-3.1v-6.4c0-0.9-0.1-1.5-0.2-2.1c-0.1-0.5-0.4-0.9-0.8-1c-0.4-0.2-0.7-0.2-1-0.2c-0.2,0-0.4,0-0.7,0.1l0.2-1.2
		c0.3,0,0.6-0.1,1-0.1c0.8-0.1,1.4-0.2,1.9-0.2c0.5-0.1,1-0.2,1.8-0.5c0.5-0.1,0.8-0.2,1.1-0.3c0,0.6,0,1-0.1,1.1
		c0,1-0.1,1.9-0.1,2.6c0,0.3,0,0.7,0,1.1c0,0.8-0.1,1.4-0.1,1.9v5.5c0,0.6,0,1,0,1.4s0,0.8,0.1,1.1c0,0.4,0.1,0.7,0.2,1
		c0.1,0.3,0.2,0.4,0.4,0.5h0.1c0.7,0.3,1.3,0.4,1.7,0.4c0.2,0,0.4,0,0.5-0.1L151.9,62.8z M149.6,41.1c-0.2,0.2-0.4,0.5-0.7,0.7
		c-0.4,0.4-0.8,0.8-1,1c-0.2-0.2-0.4-0.4-0.8-0.8l-0.3-0.3c-0.4-0.4-0.8-0.8-1.2-1.1c0.2-0.2,0.4-0.5,0.7-0.8
		c0.2-0.3,0.4-0.5,0.5-0.6l0,0c0.5-0.5,0.8-0.9,1.1-1.1c0.2,0.1,0.4,0.3,0.8,0.6c0.2,0.2,0.3,0.3,0.5,0.4c0.1,0.1,0.3,0.3,0.6,0.6
		s0.5,0.5,0.6,0.6C150.1,40.7,149.8,40.9,149.6,41.1z"/>
	<path class="st0" d="M165.6,59.7c-0.5,0.7-1.1,1.3-1.8,1.8c-0.8,0.5-1.6,0.9-2.5,1.1s-1.8,0.4-2.6,0.4c-0.4,0-1.1-0.1-1.9-0.2
		c-1-0.1-1.8-0.2-2.4-0.2c-0.2,0-0.4,0-0.8,0.1c-0.2,0-0.4,0-0.5,0.1V56l1.1-0.4v0.5c0,0.8,0.2,1.5,0.5,2.2s0.7,1.3,1.2,1.9
		c0.5,0.5,1.1,1,1.7,1.3c0.6,0.3,1.3,0.5,2,0.5c1,0,1.8-0.3,2.6-0.9c0.8-0.5,1.2-1.3,1.3-2.1c0-0.9-0.4-1.6-1.1-2.2
		c-0.7-0.6-1.7-1.1-2.9-1.5l-1.3-0.5l0,0c-0.8-0.3-1.5-0.6-2-0.8s-1-0.5-1.4-0.8s-0.8-0.8-1.1-1.3s-0.4-1.1-0.4-1.8
		c0-0.8,0.2-1.6,0.6-2.3c0.4-0.7,1-1.3,1.6-1.8c0.7-0.5,1.4-0.9,2.3-1.1c0.8-0.3,1.7-0.4,2.6-0.4c0.5,0,1,0.1,1.7,0.2
		c0.7,0.2,1.2,0.2,1.6,0.2h1v5.2l-1,0.7l-0.1-0.7c-0.2-1.2-0.7-2.3-1.4-3.1c-0.8-0.9-1.7-1.3-2.9-1.3c-0.9,0-1.6,0.3-2.3,0.8
		s-1,1.2-1.1,2c0,0.4,0.1,0.8,0.3,1.2c0.2,0.3,0.5,0.6,0.8,0.8c0.3,0.2,0.7,0.4,1.1,0.6c0.4,0.1,0.8,0.3,1.4,0.5h0.1l2.4,0.8
		c1.2,0.4,2.2,1,2.9,1.9s1.1,1.9,1.1,3C166.3,58.2,166,59,165.6,59.7z"/>
	<path class="st0" d="M192.5,62.8c-0.2,0-0.6,0.1-1,0.2s-0.7,0.2-0.9,0.2c-0.1,0-0.4,0-0.8,0.1c-0.7,0.1-1.2,0.1-1.6,0.1h-0.8
		c-1.7,0-3.3-0.3-4.7-0.9s-2.6-1.4-3.7-2.5c-1-1.1-1.8-2.3-2.4-3.7c-0.6-1.4-0.8-2.8-0.8-4.3c0-2.7,0.6-5.1,1.8-7.1s2.7-3.5,4.5-4.6
		c0.9-0.5,1.8-0.8,2.7-1s1.9-0.2,2.8-0.2h0.5c0.2,0,0.6,0,1,0.1s0.7,0.1,1,0.1c0.2,0,0.5,0.1,0.9,0.1c0.4,0.1,0.6,0.2,0.9,0.2h2.5v7
		l-1.2,0.9c0,0,0-0.1,0-0.2v-0.1c0-0.4-0.1-0.9-0.2-1.4s-0.3-1-0.5-1.5s-0.4-0.9-0.6-1.3s-0.4-0.6-0.6-0.8c-0.6-0.6-1.2-1-1.8-1.3
		c-0.6-0.3-1.3-0.4-2.1-0.4h-0.7c-1.1,0-2.1,0.3-2.9,1c-0.8,0.7-1.5,1.6-2.1,2.7c-0.3,0.5-0.5,1.1-0.6,1.7c-0.2,0.7-0.3,1.3-0.4,1.9
		c-0.1,0.6-0.2,1.2-0.2,1.6c0,0.5-0.1,0.8-0.1,1v1.1c0,1.4,0.1,2.8,0.4,4.1c0.3,1.3,0.7,2.4,1.2,3.4s1.2,1.8,2.1,2.4
		c0.8,0.6,1.8,0.9,2.9,0.9s2-0.2,2.7-0.5c0.8-0.3,1.4-0.8,1.9-1.3s0.8-1.2,1.1-1.8c0.3-0.7,0.5-1.4,0.6-2.2l1.2-0.5v7h-2V62.8z"/>
	<path class="st0" d="M200.2,53.1l0.8-1.4h5.8l0,0c0-0.1,0-0.3,0-0.5c0-0.5,0-1-0.1-1.5c-0.1-0.6-0.2-1.1-0.5-1.7
		c-0.2-0.6-0.6-1.1-1-1.4c-0.5-0.4-1.1-0.6-1.8-0.6c-0.7,0-1.3,0.2-1.8,0.6s-0.9,0.9-1.2,1.6c-0.3,0.7-0.6,1.4-0.7,2.2
		c-0.1,0.8-0.2,1.6-0.3,2.4c0,1.1,0.2,2.1,0.5,3.2c0.3,1,0.8,1.9,1.5,2.7c0.6,0.8,1.4,1.4,2.3,1.9s1.9,0.7,2.9,0.7
		c0.6,0,1-0.1,1.5-0.2c0.4-0.1,0.9-0.3,1.5-0.6l-0.4,1.5c-0.8,0.5-1.5,0.8-2.2,1s-1.5,0.3-2.4,0.3c-1.2,0-2.4-0.2-3.4-0.7
		s-2-1.1-2.8-2c-0.8-0.8-1.4-1.8-1.8-2.9s-0.7-2.3-0.7-3.6c0-1.2,0.2-2.3,0.6-3.5c0.4-1.1,0.9-2.1,1.7-3c0.7-0.9,1.6-1.6,2.5-2.1
		c1-0.5,2-0.8,3.1-0.8s2.1,0.2,3,0.6s1.7,1,2.3,1.7c0.6,0.7,1.1,1.5,1.5,2.5c0.3,0.9,0.5,1.9,0.5,2.9c0,0.1,0,0.2,0,0.4
		c0,0.2,0,0.3,0,0.4L200.2,53.1L200.2,53.1z"/>
	<path class="st0" d="M231.3,62.8h-6.2v-2.9c0-0.8,0-1.7,0.1-2.8c0.1-1.1,0.1-2,0.1-2.8c0-1.1,0-2.1-0.1-2.9c0-0.8-0.2-1.5-0.4-2.1
		c-0.2-0.6-0.5-1.2-0.9-1.5c-0.4-0.4-1-0.6-1.7-0.6c-0.6,0-1,0.1-1.5,0.3c-0.4,0.2-0.9,0.5-1.5,1c-0.1,0-0.1,0.1-0.1,0.1l-0.6,0.5
		c0,0.6-0.1,1.2-0.1,1.7s0,1,0,1.6c0,0.1,0,0.8,0,2.3c0,0.9,0,1.5,0,1.9c0,1.6,0.1,2.8,0.3,3.6c0.2,0.8,0.6,1.2,1.2,1.3
		c0.3,0,0.5,0.1,0.8,0.1c0.1,0,0.2,0,0.3,0c0.1,0,0.2,0,0.3,0l-0.4,1.2h-8.5l-0.4-1.2c0.3,0,0.5,0.1,0.7,0.1c0.5,0,1-0.1,1.5-0.4
		c0.4-0.2,0.7-0.8,0.8-1.7c0.1-0.9,0.2-2.3,0.2-4.1v-3.3c0-0.1,0-0.4,0-0.7c0-0.5,0-0.8,0-0.8c0-1-0.1-1.8-0.3-2.4
		c-0.2-0.6-0.6-0.9-1.2-0.9c-0.2,0-0.4,0-0.8,0c-0.3,0-0.5,0-0.6,0l0.2-1.2c0.3,0,0.5,0,0.5,0c0.6-0.1,1-0.1,1.3-0.1s0.6-0.1,1-0.2
		c0.6-0.1,1.3-0.3,2.2-0.5l0.7-0.2l-0.1,2.8l0.9-0.7c0.8-0.7,1.7-1.3,2.6-1.7c0.9-0.4,1.7-0.6,2.4-0.6c1.5,0,2.7,0.6,3.5,1.6
		s1.3,2.3,1.3,3.9c0,0.9,0,1.7,0,2.2c0,0.6,0,1.3-0.1,2.1c0,0.6-0.1,1.1-0.1,1.5s0,0.8,0,1.2c0,1.4,0.1,2.5,0.3,3.2
		c0.2,0.7,0.8,1,1.6,1.1c0.1,0,0.2,0,0.4,0c0.3,0,0.5,0,0.8,0L231.3,62.8z"/>
	<path class="st0" d="M241.9,46.7h-3.8l-0.1,2.4v9.2c0,0.7,0.1,1.3,0.2,1.8c0.2,0.5,0.5,0.8,0.9,1.1c0.3,0.1,0.7,0.2,1.3,0.3
		c0.6,0.1,1.2,0.1,1.8,0.1l-0.5,1.2l-3.7,0.1c-1.1,0-2-0.3-2.7-1c-0.7-0.6-1-1.6-1-2.9v-0.3c0-0.1,0-0.2,0-0.3
		c0-0.7,0.1-1.5,0.1-2.6s0.1-1.9,0.1-2.5s0-1.5,0.1-2.6c0-1.1,0-1.9,0.1-2.4v-1.5h-2.6l0.5-0.9c0.6-0.2,1.2-0.4,1.6-0.7
		c0.4-0.3,0.9-0.7,1.3-1.2c0.5-0.5,0.8-1,1.1-1.5c0.2-0.5,0.4-1,0.6-1.6l1.1-0.3l-0.2,4.5h0.3c0.6,0,1.1,0.1,1.5,0.1
		c0.6,0,1.1,0,1.5-0.1c0.4,0,1-0.1,1.7-0.2L241.9,46.7z"/>
	<path class="st0" d="M254.6,50.2l-0.6-0.7l-0.1-0.1c-0.2-0.2-0.3-0.4-0.5-0.5c-0.1-0.1-0.3-0.1-0.6-0.1c-0.5,0-1,0.2-1.3,0.6
		s-0.6,0.9-0.8,1.6c-0.2,0.7-0.3,1.4-0.3,2.2c-0.1,0.8-0.1,1.6-0.1,2.6c0,1.1,0.1,2,0.1,2.7s0.1,1.2,0.2,1.5s0.2,0.6,0.3,0.7
		c0.1,0.1,0.3,0.2,0.5,0.3c0,0,0.1,0,0.1,0.1c0.3,0.1,0.7,0.3,1.4,0.3c0.6,0.1,1.2,0.1,1.6,0.1l-0.4,1.2h-9.7l-0.3-1.2
		c0.5,0,1,0,1.3-0.1c0.3,0,0.6-0.1,0.9-0.3c0.4-0.3,0.7-0.8,0.8-1.7c0.1-0.9,0.2-2.2,0.2-4.2v-3.3c0-0.7,0-1.4,0-1.9s-0.1-1-0.2-1.4
		c-0.1-0.5-0.3-0.8-0.5-1.1c-0.2-0.3-0.5-0.4-0.9-0.4s-0.8,0-1.3,0l0.3-1.2c0.6-0.1,1.1-0.1,1.5-0.1s0.8-0.1,1.3-0.2
		c0.4-0.1,1-0.2,1.7-0.4c0.5-0.1,0.8-0.2,0.9-0.3l-0.1,4.6l1.6-2.4c0.1-0.1,0.1-0.2,0.2-0.3c0.4-0.6,0.8-1.1,1.2-1.4
		c0.4-0.3,0.8-0.5,1.5-0.5c0.3,0,0.7,0.1,1,0.3c0.3,0.2,0.6,0.5,0.9,0.9l0.9,1L254.6,50.2z"/>
	<path class="st0" d="M276.2,62.8h-4.6c-0.4-1.2-0.8-2.3-1.1-3.2c-0.3-0.9-0.6-1.9-0.9-3v-0.1c-0.2-0.9-0.4-1.6-0.5-2.2
		s-0.3-1.3-0.4-2l-0.8,0.3c-1.6,0.6-2.9,1.3-3.8,2.2c-1,0.9-1.5,2-1.5,3.2c0,1.1,0.4,2,1.2,2.6c0.8,0.6,1.7,0.9,2.8,0.9
		c0.3,0,0.7,0,1-0.1c0.4-0.1,0.7-0.2,1.1-0.3c0.3-0.1,0.6-0.2,0.9-0.4c0.2-0.1,0.4-0.2,0.5-0.3L270,62l0,0c-0.5,0.3-1.2,0.6-2,0.8
		c-0.8,0.3-1.7,0.4-2.8,0.4c-0.8,0-1.6-0.1-2.4-0.3c-0.8-0.2-1.5-0.5-2.1-0.9s-1.2-0.9-1.5-1.5c-0.4-0.6-0.6-1.3-0.6-2.1
		c0.1-0.8,0.3-1.6,0.8-2.2c0.5-0.7,1-1.3,1.8-1.8c0.7-0.5,1.5-1,2.4-1.4s1.9-0.8,3-1.2l1.8-0.7l-0.3-1.3c-0.1-0.6-0.3-1.1-0.4-1.5
		s-0.3-0.8-0.5-1.1c-0.2-0.4-0.5-0.6-0.8-0.9c-0.3-0.2-0.7-0.3-1.1-0.3c-0.8,0-1.5,0.4-2.1,1.1s-1.1,1.6-1.3,2.7l-0.5,1.9l-1-0.5
		v-5.5l1.8-0.5c0.6-0.1,1.2-0.2,1.7-0.3c0.5-0.1,1.1-0.1,1.8-0.1c1.1,0,2,0.1,2.8,0.4c0.7,0.3,1.3,0.6,1.8,1.1s0.8,1,1.1,1.6
		c0.3,0.6,0.5,1.4,0.7,2.2l1.5,6.8c0.1,0.7,0.4,1.4,0.6,2.2c0.3,0.8,0.5,1.3,0.7,1.6c0.2,0.4,0.5,0.6,0.8,0.7s0.8,0.2,1.3,0.3h0.1
		L276.2,62.8z"/>
	<path class="st0" d="M286.8,62.8h-9l-0.4-1.2h0.1c0.1,0,0.2,0,0.3,0c0.3,0,0.6,0,1-0.1c0.3,0,0.6-0.1,0.8-0.3
		c0.4-0.2,0.7-0.7,0.8-1.4c0.1-0.7,0.2-1.7,0.2-3V43.7c0-0.8-0.1-1.4-0.2-1.9s-0.4-0.9-0.8-1.1c-0.4-0.2-0.8-0.3-1.2-0.3
		c-0.3,0-0.5,0-0.8,0.1l0.5-1.1c0.6-0.1,1.4-0.2,2.4-0.4c0.1,0,0.3,0,0.7-0.1c0.4-0.1,0.8-0.2,1.2-0.2c0.3-0.1,0.9-0.2,1.5-0.4
		l0.2-0.1c0,0.2,0,0.7,0,1.4s0,1.2,0,1.4c0,0.4,0,1-0.1,1.8c0,0.8-0.1,1.4-0.1,1.8v11c0,1.8,0.1,3.1,0.2,4s0.4,1.5,0.8,1.7
		c0.2,0.1,0.4,0.2,0.7,0.3c0.3,0,0.6,0.1,0.9,0.1s0.5,0,0.7-0.1L286.8,62.8z"/>
	<path class="st0" d="M313.7,62.8c-0.2,0-0.6,0.1-1,0.2s-0.7,0.2-0.9,0.2c-0.1,0-0.3,0-0.8,0.1c-0.7,0.1-1.2,0.1-1.6,0.1h-0.8
		c-1.7,0-3.3-0.3-4.7-0.9c-1.4-0.6-2.6-1.4-3.7-2.5c-1-1.1-1.8-2.3-2.4-3.7c-0.6-1.4-0.8-2.8-0.8-4.3c0-2.7,0.6-5.1,1.8-7.1
		c1.2-2,2.7-3.5,4.5-4.6c0.9-0.5,1.8-0.8,2.7-1c0.9-0.2,1.9-0.2,2.8-0.2h0.4c0.2,0,0.6,0,1,0.1s0.7,0.1,1,0.1c0.2,0,0.5,0.1,0.9,0.1
		c0.4,0.1,0.7,0.2,0.9,0.2h2.5v7l-1.2,0.9c0,0,0-0.1,0-0.2v-0.1c0-0.4-0.1-0.9-0.2-1.4s-0.3-1-0.5-1.5s-0.4-0.9-0.6-1.3
		s-0.4-0.6-0.6-0.8c-0.6-0.6-1.2-1-1.8-1.3c-0.6-0.3-1.3-0.4-2.1-0.4h-0.7c-1.1,0-2.1,0.3-2.9,1s-1.5,1.6-2.1,2.7
		c-0.3,0.5-0.5,1.1-0.6,1.7c-0.2,0.7-0.3,1.3-0.4,1.9s-0.2,1.2-0.2,1.6c0,0.5-0.1,0.8-0.1,1v1.1c0,1.4,0.1,2.8,0.4,4.1
		c0.3,1.3,0.7,2.4,1.2,3.4s1.2,1.8,2.1,2.4c0.8,0.6,1.8,0.9,2.9,0.9s2-0.2,2.7-0.5c0.8-0.3,1.4-0.8,1.9-1.3s0.8-1.2,1.1-1.8
		c0.3-0.7,0.4-1.4,0.6-2.2l1.2-0.5v7h-1.9L313.7,62.8L313.7,62.8z"/>
	<path class="st0" d="M333.3,57.2c-0.5,1.2-1.1,2.2-1.9,3.2c-0.8,0.9-1.8,1.7-2.8,2.2c-1.1,0.5-2.2,0.8-3.4,0.8
		c-1.1,0-2.2-0.2-3.2-0.7s-1.9-1.1-2.6-2c-0.8-0.8-1.3-1.8-1.7-2.9c-0.4-1.1-0.6-2.2-0.6-3.4c0-1.3,0.2-2.5,0.6-3.8
		c0.4-1.2,1-2.3,1.8-3.2c0.8-0.9,1.7-1.7,2.7-2.2c1.1-0.5,2.2-0.8,3.5-0.8c1.2,0,2.3,0.2,3.3,0.7s1.9,1.1,2.7,2
		c0.8,0.8,1.4,1.8,1.8,2.9s0.6,2.3,0.6,3.5C333.9,54.8,333.7,56,333.3,57.2z M329.8,50.8c-0.1-0.9-0.3-1.8-0.7-2.6
		c-0.3-0.8-0.8-1.4-1.4-1.9s-1.3-0.7-2.2-0.7c-0.9,0-1.7,0.3-2.3,0.8c-0.6,0.5-1.1,1.2-1.4,2s-0.6,1.7-0.7,2.7s-0.2,2-0.2,3
		c0,1.1,0.1,2.1,0.2,3s0.3,1.8,0.6,2.6c0.3,0.8,0.8,1.4,1.4,1.9s1.4,0.7,2.4,0.7s1.7-0.2,2.3-0.8c0.6-0.5,1-1.2,1.3-2
		s0.5-1.7,0.6-2.6s0.1-2,0.1-3.1C330,52.7,329.9,51.7,329.8,50.8z"/>
	<path class="st0" d="M343.6,62.8h-9l-0.4-1.2h0.1c0.1,0,0.2,0,0.3,0c0.3,0,0.6,0,1-0.1c0.3,0,0.6-0.1,0.8-0.3
		c0.4-0.2,0.7-0.7,0.8-1.4c0.1-0.7,0.2-1.7,0.2-3V43.7c0-0.8-0.1-1.4-0.2-1.9s-0.4-0.9-0.8-1.1c-0.4-0.2-0.8-0.3-1.2-0.3
		c-0.3,0-0.5,0-0.8,0.1l0.3-1.2c0.6-0.1,1.4-0.2,2.4-0.4c0.1,0,0.3,0,0.7-0.1c0.4-0.1,0.8-0.2,1.2-0.2c0.3-0.1,0.9-0.2,1.5-0.4
		l0.2-0.1c0,0.2,0,0.7,0,1.4s0,1.2,0,1.4c0,0.4,0,1-0.1,1.8c0,0.8-0.1,1.4-0.1,1.8v11c0,1.8,0.1,3.1,0.2,4s0.4,1.5,0.8,1.7
		c0.2,0.1,0.4,0.2,0.7,0.3c0.3,0,0.6,0.1,0.9,0.1s0.5,0,0.7-0.1L343.6,62.8z"/>
	<path class="st0" d="M354.4,62.8h-9l-0.4-1.2h0.1c0.1,0,0.2,0,0.3,0c0.3,0,0.6,0,1-0.1c0.3,0,0.6-0.1,0.8-0.3
		c0.4-0.2,0.7-0.7,0.8-1.4c0.1-0.7,0.2-1.7,0.2-3V43.7c0-0.8-0.1-1.4-0.2-1.9s-0.4-0.9-0.8-1.1c-0.4-0.2-0.8-0.3-1.2-0.3
		c-0.3,0-0.5,0-0.8,0.1l0.3-1.2c0.6-0.1,1.4-0.2,2.4-0.4c0.1,0,0.3,0,0.7-0.1c0.4-0.1,0.8-0.2,1.2-0.2c0.3-0.1,0.9-0.2,1.5-0.4
		l0.2-0.1c0,0.2,0,0.7,0,1.4s0,1.2,0,1.4c0,0.4,0,1-0.1,1.8c0,0.8-0.1,1.4-0.1,1.8v11c0,1.8,0.1,3.1,0.2,4s0.4,1.5,0.8,1.7
		c0.2,0.1,0.4,0.2,0.7,0.3c0.3,0,0.6,0.1,0.9,0.1s0.5,0,0.7-0.1L354.4,62.8z"/>
	<path class="st0" d="M359.3,53.1l0.8-1.4h5.8l0,0c0-0.1,0-0.3,0-0.5c0-0.5,0-1-0.1-1.5c-0.1-0.6-0.2-1.1-0.5-1.7
		c-0.2-0.6-0.6-1.1-1-1.4c-0.5-0.4-1.1-0.6-1.8-0.6c-0.7,0-1.3,0.2-1.8,0.6s-0.9,0.9-1.2,1.6c-0.3,0.7-0.6,1.4-0.7,2.2
		c-0.2,0.8-0.2,1.6-0.3,2.4c0,1.1,0.2,2.1,0.5,3.2c0.4,1,0.9,1.9,1.5,2.7c0.7,0.8,1.4,1.4,2.3,1.9s1.9,0.7,2.9,0.7
		c0.6,0,1-0.1,1.5-0.2c0.4-0.1,0.9-0.3,1.5-0.6l-0.5,1.5c-0.8,0.5-1.5,0.8-2.2,1s-1.5,0.3-2.4,0.3c-1.2,0-2.4-0.2-3.4-0.7
		s-2-1.1-2.8-2c-0.8-0.8-1.4-1.8-1.8-2.9s-0.7-2.3-0.7-3.6c0-1.2,0.2-2.3,0.6-3.5c0.4-1.1,0.9-2.1,1.7-3c0.7-0.9,1.6-1.6,2.5-2.1
		c1-0.5,2-0.8,3.1-0.8s2.1,0.2,3,0.6s1.7,1,2.3,1.7c0.6,0.7,1.1,1.5,1.5,2.5c0.3,0.9,0.5,1.9,0.5,2.9c0,0.1,0,0.2,0,0.4
		c0,0.2,0,0.3,0,0.4L359.3,53.1L359.3,53.1z"/>
	<path class="st0" d="M386.7,46.4c-0.1,1-0.1,1.9-0.1,2.5c0,0.1,0,0.2,0,0.4v0.5c0,0.2,0,0.6,0,1s0,0.7,0,0.9c0,0.5,0,1.3,0,2.3
		c0,0.9,0,1.6,0,2.2c0,1,0,2,0.1,3c0,0.1,0,0.3,0,0.5s0,0.4,0,0.5c0,3-0.9,5.3-2.6,6.9s-4,2.4-6.9,2.4c-0.9,0-1.8-0.1-2.7-0.2
		c-0.8-0.1-1.6-0.3-2.1-0.5v-5.9l1-0.4l0.1,0.7c0.2,1.4,0.8,2.6,1.8,3.5c0.9,0.9,2.1,1.4,3.5,1.4c1,0,1.8-0.2,2.4-0.7
		c0.6-0.4,1.1-1,1.3-1.7c0.3-0.7,0.5-1.4,0.5-2.1c0.1-0.7,0.1-1.6,0.1-2.6c0-0.4,0-0.7,0-0.9c0-0.3,0-0.5,0-0.8v-0.7
		c0-0.9,0-2.2-0.1-3.8c-0.1-1.7-0.1-3.1-0.1-4.2c0-0.7,0-1.7,0-3.1c0-0.3,0-0.6,0-0.9c-0.4-0.1-0.7-0.2-1-0.2s-0.6,0-1,0
		c-1,0-1.9,0.3-2.7,0.8c-0.8,0.5-1.5,1.1-2,1.9s-0.9,1.7-1.2,2.7c-0.3,1-0.4,2-0.4,3.1c0,0.9,0.1,1.7,0.3,2.4
		c0.2,0.8,0.5,1.5,0.9,2.1s0.9,1.1,1.4,1.5c0.6,0.4,1.2,0.5,2,0.5c0.6,0,1.1-0.1,1.6-0.2c0.5-0.2,0.9-0.4,1.4-0.8l-0.1,1.4
		c-0.6,0.4-1.3,0.8-1.8,1c-0.6,0.2-1.2,0.3-2,0.3c-1.1,0-2-0.2-3-0.7c-0.9-0.4-1.7-1-2.4-1.8c-0.7-0.8-1.2-1.6-1.5-2.6
		c-0.4-1-0.6-2-0.6-3c0-1.3,0.3-2.6,0.9-3.8c0.6-1.2,1.3-2.3,2.3-3.2c1-0.9,2.1-1.6,3.3-2.1c1.2-0.5,2.6-0.8,3.9-0.8
		c0.3,0,0.7,0,1.3,0c0.6,0,1,0.1,1.4,0.1c0.5,0,0.9,0,1.3,0s0.9,0,1.4-0.1C386.8,45.3,386.8,45.7,386.7,46.4z"/>
	<path class="st0" d="M392.4,53.1l0.8-1.4h5.8l0,0c0-0.1,0-0.3,0-0.5c0-0.5,0-1-0.1-1.5c-0.1-0.6-0.2-1.1-0.5-1.7
		c-0.2-0.6-0.6-1.1-1-1.4c-0.5-0.4-1.1-0.6-1.8-0.6c-0.7,0-1.3,0.2-1.8,0.6s-0.9,0.9-1.2,1.6c-0.3,0.7-0.6,1.4-0.7,2.2
		c-0.2,0.8-0.2,1.6-0.3,2.4c0,1.1,0.2,2.1,0.5,3.2c0.4,1,0.9,1.9,1.5,2.7c0.7,0.8,1.4,1.4,2.3,1.9s1.9,0.7,2.9,0.7
		c0.6,0,1-0.1,1.5-0.2c0.4-0.1,0.9-0.3,1.5-0.6l-0.5,1.5c-0.8,0.5-1.5,0.8-2.2,1s-1.5,0.3-2.4,0.3c-1.2,0-2.4-0.2-3.4-0.7
		s-2-1.1-2.8-2c-0.8-0.8-1.4-1.8-1.8-2.9s-0.7-2.3-0.7-3.6c0-1.2,0.2-2.3,0.6-3.5c0.4-1.1,0.9-2.1,1.7-3c0.7-0.9,1.6-1.6,2.5-2.1
		c1-0.5,2-0.8,3.1-0.8s2.1,0.2,3,0.6s1.7,1,2.3,1.7c0.6,0.7,1.1,1.5,1.5,2.5c0.3,0.9,0.5,1.9,0.5,2.9c0,0.1,0,0.2,0,0.4
		c0,0.2,0,0.3,0,0.4L392.4,53.1L392.4,53.1z"/>
</g>
</svg>
