<?xml version="1.0" encoding="UTF-8"?><svg id="a" xmlns="http://www.w3.org/2000/svg" width="368.424" height="182.26" viewBox="0 0 368.424 182.26"><defs><style>.b{fill:#111b44;}.b,.c{stroke-width:0px;}.c{fill:#ff6f3a;}</style></defs><path class="b" d="m312.398,56.416c-13.569,0-23.119,4.691-28.145,13.402l-.67-.167s.67-8.042.67-13.905V13.529h-28.145v88.089c1.979,3.536,3,7.653,3,12.26,0,4.829-1.025,9.271-3,13.217v13.755h28.145v-50.928c3.686-5.193,10.219-9.717,18.428-9.717,8.544,0,12.397,4.355,12.397,11.895v48.75h28.144v-56.289c0-17.59-11.392-28.145-30.824-28.145Z"/><path class="b" d="m245.554,95.282c-4.858-2.513-11.224-4.021-19.433-5.193-6.534-1.005-12.899-1.675-15.245-2.68-2.346-.671-3.183-2.179-3.183-3.854,0-3.351,3.183-5.863,12.062-5.863,10.219,0,20.605,2.848,26.469,5.528l5.696-20.438c-5.193-2.513-17.926-6.366-33.17-6.366-14.58,0-25.088,3.679-31.383,9.838l-.073.382-5.008,26.261c1.409,3.195,3.53,5.777,6.142,7.579,4.523,3.016,10.722,5.026,21.108,6.534,7.203,1.005,13.401,1.507,15.58,2.345,2.68.838,3.686,2.848,3.686,4.858,0,3.686-3.854,7.036-14.072,7.036-13.402,0-24.794-4.523-28.982-6.366l-2.838,10.837.774.41,2.771,1.467-1.588,2.704-3.603,6.135c5.953,2.392,20.048,6.09,35.475,6.09,26.972,0,39.369-12.731,39.369-28.646,0-8.544-3.854-14.742-10.555-18.596Z"/><polygon class="c" points="182.28 128.781 182.129 128.701 181.969 129.311 182.28 128.781"/><path class="c" d="m183.561,65.923l-26.694-5.091-9.541,50.026c-4.397,4.37-9.491,6.624-15.081,6.624-1.366,0-2.761-.135-4.183-.406-9.215-1.758-11.902-8.239-10.019-18.113l8.38-43.938-27.481-5.241-6.753,35.407c.941,4.124,1.443,8.56,1.443,13.274,0,7.425-1.177,14.199-3.352,20.161,3.226,9.824,11.335,17.622,25.591,20.341,2.719.519,5.405.803,8.019.803,8.461,0,16.156-2.982,21.66-10.662l.329.063c1.534,9.842,8.554,15.957,18.044,18.96,2.021.385,4.244.454,5.564.454.722,0,1.174-.021,1.174-.021l6.312-10.749,2.196-3.74,2.799-4.767.16-.61-1.362-.721-1.361-.721-1.153-.61c-3.667-2.234-4.544-4.79-3.477-10.384l4.395-23.045.58-3.042.776-4.068,2.773-14.543.76-3.982.288-1.512-.788-.15Z"/><path class="b" d="m90.479,94.156c-.12-1.725-.307-3.405-.567-5.031-.214-1.337-.477-2.639-.782-3.906-4.342-17.988-17.756-28.803-35.521-28.803-12.062,0-21.275,3.184-26.972,13.737h-.67l-5.528-12.062H0v34.858l46.935.152-.755-12.518,26.186,17.327-21.542,21.056-1.718-12.705L0,115.723v62.988h28.145v-30.322c0-5.361-1.676-15.58-1.676-15.58l.838-.503c6.031,7.874,13.737,10.219,24.627,10.219,17.232,0,29.483-9.533,35.152-24.042.321-.823.629-1.656.908-2.51.352-1.078.661-2.186.944-3.311,1.111-4.42,1.694-9.181,1.694-14.196,0-1.469-.056-2.904-.153-4.31Z"/><path class="b" d="m329.724,4.015h-6.885V0h18.651v4.015h-6.86v18.649h-4.906V4.015Z"/><path class="b" d="m363.697,14.163c0-3.868.064-8.202.161-10.763h-.155c-1.065,4.623-3.333,12.174-5.506,19.264h-4.173c-1.652-6.199-3.996-14.802-4.989-19.329h-.153c.193,2.661.289,7.324.289,11.21v8.119h-4.467V0h7.294c1.767,5.921,3.747,13.349,4.427,16.727h.037c.554-2.977,3.043-10.921,4.936-16.727h7.026v22.664h-4.727v-8.501Z"/></svg>